<svg width="17" height="19" viewBox="0 0 17 19" fill="none" xmlns="http://www.w3.org/2000/svg">
<path d="M16.3334 15.7731L13.2799 12.4235C13.1421 12.2723 12.9552 12.1883 12.7592 12.1883H12.26C13.1053 11.0024 13.6076 9.51073 13.6076 7.88804C13.6076 4.02783 10.7562 0.900024 7.23713 0.900024C3.71806 0.900024 0.866669 4.02783 0.866669 7.88804C0.866669 11.7482 3.71806 14.876 7.23713 14.876C8.71643 14.876 10.0763 14.3251 11.1574 13.3978V13.9454C11.1574 14.1604 11.234 14.3654 11.3718 14.5166L14.4253 17.8661C14.7132 18.1819 15.1788 18.1819 15.4636 17.8661L16.3304 16.9153C16.6183 16.5995 16.6183 16.0889 16.3334 15.7731ZM7.23713 12.1883C5.07179 12.1883 3.31685 10.2666 3.31685 7.88804C3.31685 5.51278 5.06872 3.58772 7.23713 3.58772C9.40248 3.58772 11.1574 5.50942 11.1574 7.88804C11.1574 10.2633 9.40554 12.1883 7.23713 12.1883Z" fill="#333333"/>
</svg>
