<svg width="122" height="15" viewBox="0 0 122 15" fill="none" xmlns="http://www.w3.org/2000/svg">
<path d="M2.68668 0.834986L5.32293 9.1229H5.42679L8.05809 0.834986H10.0761L6.50503 11.3645H4.23974L0.673645 0.834986H2.68668Z" fill="#282828"/>
<path d="M11.3311 11.3645V3.46738H13.1216V11.3645H11.3311ZM12.2313 2.34656C11.9477 2.34656 11.7037 2.24887 11.4993 2.0535C11.2949 1.85469 11.1926 1.61648 11.1926 1.33884C11.1926 1.05778 11.2949 0.819562 11.4993 0.624189C11.7037 0.425389 11.9477 0.325989 12.2313 0.325989C12.5182 0.325989 12.7622 0.425389 12.9633 0.624189C13.1678 0.819562 13.27 1.05778 13.27 1.33884C13.27 1.61648 13.1678 1.85469 12.9633 2.0535C12.7622 2.24887 12.5182 2.34656 12.2313 2.34656Z" fill="#282828"/>
<path d="M18.3261 11.5188C17.5644 11.5188 16.9066 11.3543 16.3526 11.0252C15.8019 10.6927 15.3782 10.2232 15.0815 9.61648C14.7847 9.00637 14.6363 8.28829 14.6363 7.46224C14.6363 6.6499 14.7847 5.93696 15.0815 5.32342C15.3815 4.70645 15.8003 4.22659 16.3378 3.88383C16.8752 3.53764 17.5067 3.36455 18.2321 3.36455C18.7003 3.36455 19.1422 3.44338 19.5576 3.60105C19.9764 3.75529 20.3457 3.99523 20.6656 4.32085C20.9887 4.64647 21.2426 5.06121 21.4272 5.56506C21.6119 6.06549 21.7042 6.66189 21.7042 7.35427V7.92496H15.4772V6.67046H19.9879C19.9846 6.31399 19.9105 5.99694 19.7654 5.71931C19.6203 5.43824 19.4175 5.21716 19.157 5.05607C18.8998 4.89497 18.5998 4.81442 18.2568 4.81442C17.8908 4.81442 17.5693 4.90697 17.2923 5.09206C17.0154 5.27372 16.7994 5.51365 16.6444 5.81185C16.4927 6.10662 16.4153 6.43053 16.412 6.78357V7.87869C16.412 8.33799 16.4927 8.73216 16.6543 9.06121C16.8159 9.38683 17.0417 9.63704 17.3319 9.81185C17.6221 9.98323 17.9617 10.0689 18.3508 10.0689C18.6113 10.0689 18.8471 10.0312 19.0581 9.95581C19.2691 9.87698 19.4521 9.76215 19.6071 9.61134C19.7621 9.46052 19.8791 9.27372 19.9583 9.05093L21.63 9.2463C21.5245 9.7056 21.3234 10.1066 21.0266 10.4494C20.7331 10.7887 20.3572 11.0526 19.8989 11.2412C19.4406 11.4262 18.9163 11.5188 18.3261 11.5188Z" fill="#282828"/>
<path d="M24.746 11.3645L22.5995 3.46738H24.4245L25.76 9.02008H25.8292L27.1943 3.46738H28.9996L30.3647 8.98923H30.4389L31.7546 3.46738H33.5846L31.4331 11.3645H29.5684L28.144 6.02779H28.0401L26.6156 11.3645H24.746Z" fill="#282828"/>
<path d="M38.3687 0.834986H40.6142L43.6214 8.46481H43.7401L46.7473 0.834986H48.9928V11.3645H47.232V4.13062H47.138L44.3385 11.3337H43.0229L40.2234 4.11519H40.1295V11.3645H38.3687V0.834986Z" fill="#282828"/>
<path d="M52.0247 14.326C51.7807 14.326 51.5548 14.3054 51.3471 14.2643C51.1427 14.2266 50.9794 14.182 50.8574 14.1306L51.2729 12.6807C51.5334 12.7596 51.7659 12.7973 51.9703 12.7939C52.1747 12.7904 52.3544 12.7236 52.5094 12.5933C52.6677 12.4665 52.8012 12.254 52.91 11.9558L53.0634 11.5291L50.3084 3.46738H52.2077L53.9586 9.43139H54.0377L55.7936 3.46738H57.6978L54.656 12.3208C54.5142 12.739 54.3263 13.0972 54.0921 13.3954C53.858 13.697 53.5712 13.9267 53.2315 14.0843C52.8952 14.2454 52.4929 14.326 52.0247 14.326Z" fill="#282828"/>
<path d="M62.4707 11.3645V0.834986H66.2693C67.0475 0.834986 67.7004 0.9858 68.2279 1.28743C68.7588 1.58906 69.1594 2.0038 69.4298 2.53165C69.7035 3.05607 69.8403 3.65247 69.8403 4.32085C69.8403 4.99608 69.7035 5.59591 69.4298 6.12033C69.1561 6.64476 68.7522 7.05778 68.218 7.35941C67.6839 7.65761 67.026 7.80671 66.2446 7.80671H63.727V6.23859H65.9973C66.4523 6.23859 66.8249 6.15632 67.1151 5.9918C67.4052 5.82727 67.6196 5.60105 67.7581 5.31314C67.8998 5.02522 67.9707 4.69446 67.9707 4.32085C67.9707 3.94724 67.8998 3.61819 67.7581 3.3337C67.6196 3.04921 67.4036 2.82813 67.1101 2.67046C66.82 2.50937 66.4457 2.42882 65.9874 2.42882H64.3057V11.3645H62.4707Z" fill="#282828"/>
<path d="M71.3551 11.3645V3.46738H73.0911V4.78357H73.1703C73.3088 4.3277 73.5462 3.97638 73.8825 3.72959C74.2221 3.47937 74.6096 3.35427 75.0448 3.35427C75.1437 3.35427 75.2542 3.35941 75.3762 3.36969C75.5015 3.37655 75.6054 3.38854 75.6878 3.40568V5.11776C75.612 5.09034 75.4916 5.06635 75.3267 5.04578C75.1652 5.02179 75.0086 5.00979 74.8569 5.00979C74.5304 5.00979 74.237 5.08349 73.9765 5.23087C73.7193 5.37483 73.5165 5.57535 73.3681 5.83242C73.2197 6.08949 73.1455 6.38597 73.1455 6.72188V11.3645H71.3551Z" fill="#282828"/>
<path d="M79.8783 11.5188C79.1364 11.5188 78.4935 11.3491 77.9494 11.0098C77.4053 10.6705 76.9833 10.1957 76.6832 9.58563C76.3864 8.97552 76.2381 8.26258 76.2381 7.44681C76.2381 6.63105 76.3864 5.91639 76.6832 5.30285C76.9833 4.68931 77.4053 4.21288 77.9494 3.87355C78.4935 3.53422 79.1364 3.36455 79.8783 3.36455C80.6203 3.36455 81.2632 3.53422 81.8073 3.87355C82.3514 4.21288 82.7718 4.68931 83.0685 5.30285C83.3686 5.91639 83.5186 6.63105 83.5186 7.44681C83.5186 8.26258 83.3686 8.97552 83.0685 9.58563C82.7718 10.1957 82.3514 10.6705 81.8073 11.0098C81.2632 11.3491 80.6203 11.5188 79.8783 11.5188ZM79.8882 10.0278C80.2905 10.0278 80.6268 9.91296 80.8972 9.68332C81.1676 9.45024 81.3687 9.13833 81.5006 8.74758C81.6358 8.35684 81.7034 7.92153 81.7034 7.44167C81.7034 6.95838 81.6358 6.52136 81.5006 6.13062C81.3687 5.73644 81.1676 5.42282 80.8972 5.18974C80.6268 4.95667 80.2905 4.84013 79.8882 4.84013C79.4761 4.84013 79.1331 4.95667 78.8595 5.18974C78.5891 5.42282 78.3863 5.73644 78.2511 6.13062C78.1192 6.52136 78.0533 6.95838 78.0533 7.44167C78.0533 7.92153 78.1192 8.35684 78.2511 8.74758C78.3863 9.13833 78.5891 9.45024 78.8595 9.68332C79.1331 9.91296 79.4761 10.0278 79.8882 10.0278Z" fill="#282828"/>
<path d="M87.8575 11.5034C87.2607 11.5034 86.7266 11.344 86.255 11.0252C85.7835 10.7065 85.4109 10.2437 85.1372 9.63704C84.8635 9.03036 84.7267 8.29343 84.7267 7.42625C84.7267 6.54878 84.8652 5.80842 85.1422 5.20517C85.4224 4.59848 85.8 4.1409 86.2748 3.83242C86.7496 3.52051 87.2789 3.36455 87.8625 3.36455C88.3076 3.36455 88.6736 3.44338 88.9605 3.60105C89.2474 3.75529 89.4749 3.9421 89.6431 4.16146C89.8112 4.3774 89.9415 4.58134 90.0338 4.77329H90.108V0.834986H91.9034V11.3645H90.1426V10.1203H90.0338C89.9415 10.3123 89.8079 10.5162 89.6332 10.7322C89.4584 10.9447 89.2276 11.1263 88.9407 11.2771C88.6539 11.428 88.2928 11.5034 87.8575 11.5034ZM88.3571 9.97638C88.7363 9.97638 89.0594 9.87012 89.3265 9.65761C89.5936 9.44167 89.7964 9.14176 89.9349 8.75787C90.0734 8.37398 90.1426 7.92667 90.1426 7.41596C90.1426 6.90525 90.0734 6.46138 89.9349 6.08434C89.7997 5.70731 89.5986 5.41425 89.3315 5.20517C89.0677 4.99608 88.7429 4.89154 88.3571 4.89154C87.9581 4.89154 87.6251 4.99951 87.358 5.21545C87.0909 5.43139 86.8898 5.72959 86.7546 6.11005C86.6194 6.49051 86.5518 6.92582 86.5518 7.41596C86.5518 7.90954 86.6194 8.34998 86.7546 8.7373C86.8931 9.12119 87.0959 9.42453 87.3629 9.64733C87.6333 9.86669 87.9647 9.97638 88.3571 9.97638Z" fill="#282828"/>
<path d="M98.6535 8.04321V3.46738H100.444V11.3645H98.7079V9.96095H98.6288C98.4573 10.4031 98.1754 10.7647 97.783 11.0458C97.3939 11.3268 96.9142 11.4674 96.3437 11.4674C95.8458 11.4674 95.4056 11.3526 95.0231 11.1229C94.6439 10.8898 94.3472 10.5522 94.1328 10.1101C93.9185 9.66446 93.8113 9.12633 93.8113 8.49566V3.46738H95.6018V8.20774C95.6018 8.70817 95.7337 9.10577 95.9975 9.40054C96.2613 9.69531 96.6075 9.8427 97.0362 9.8427C97.2999 9.8427 97.5555 9.77586 97.8028 9.64219C98.0501 9.50851 98.2529 9.30971 98.4112 9.04578C98.5727 8.77843 98.6535 8.44424 98.6535 8.04321Z" fill="#282828"/>
<path d="M105.599 11.5188C104.841 11.5188 104.189 11.3457 103.645 10.9995C103.105 10.6533 102.687 10.1752 102.394 9.56506C102.104 8.95152 101.959 8.24544 101.959 7.44681C101.959 6.64476 102.107 5.93696 102.404 5.32342C102.701 4.70645 103.119 4.22659 103.66 3.88383C104.204 3.53764 104.847 3.36455 105.589 3.36455C106.206 3.36455 106.751 3.4828 107.226 3.71931C107.704 3.95238 108.085 4.28314 108.369 4.71159C108.652 5.13661 108.814 5.63362 108.853 6.2026H107.142C107.073 5.82213 106.908 5.50508 106.648 5.25144C106.39 4.99437 106.046 4.86584 105.614 4.86584C105.248 4.86584 104.926 4.96866 104.649 5.17432C104.372 5.37655 104.156 5.66789 104.001 6.04835C103.85 6.42882 103.774 6.88469 103.774 7.41596C103.774 7.9541 103.85 8.41682 104.001 8.80414C104.153 9.18803 104.366 9.48452 104.639 9.6936C104.916 9.89925 105.241 10.0021 105.614 10.0021C105.878 10.0021 106.113 9.95067 106.321 9.84784C106.532 9.74158 106.709 9.58906 106.85 9.39026C106.992 9.19146 107.089 8.94981 107.142 8.66532H108.853C108.811 9.22402 108.652 9.71931 108.379 10.1512C108.105 10.5796 107.732 10.9155 107.261 11.1589C106.789 11.3988 106.235 11.5188 105.599 11.5188Z" fill="#282828"/>
<path d="M114.117 3.46738V4.90697H109.75V3.46738H114.117ZM110.828 1.57535H112.619V8.98923C112.619 9.23944 112.655 9.43139 112.727 9.56506C112.803 9.69531 112.902 9.78443 113.024 9.83242C113.146 9.8804 113.281 9.9044 113.43 9.9044C113.542 9.9044 113.644 9.89583 113.736 9.87869C113.832 9.86155 113.905 9.84613 113.954 9.83242L114.256 11.2874C114.16 11.3217 114.023 11.3594 113.845 11.4005C113.671 11.4417 113.456 11.4657 113.202 11.4725C112.754 11.4862 112.35 11.416 111.991 11.2617C111.631 11.1041 111.346 10.8607 111.135 10.5316C110.927 10.2026 110.825 9.79129 110.828 9.29771V1.57535Z" fill="#282828"/>
<path d="M121.51 5.55478L119.878 5.73987C119.832 5.56849 119.751 5.40739 119.636 5.25658C119.524 5.10577 119.372 4.98409 119.181 4.89154C118.99 4.799 118.755 4.75272 118.479 4.75272C118.106 4.75272 117.793 4.8367 117.539 5.00465C117.288 5.1726 117.164 5.39026 117.168 5.65761C117.164 5.88726 117.245 6.07406 117.41 6.21802C117.578 6.36198 117.855 6.48023 118.241 6.57278L119.537 6.86069C120.256 7.02179 120.79 7.27715 121.139 7.62676C121.492 7.97638 121.67 8.43396 121.674 8.99951C121.67 9.49651 121.53 9.93524 121.253 10.3157C120.98 10.6927 120.599 10.9875 120.111 11.2C119.623 11.4125 119.062 11.5188 118.429 11.5188C117.499 11.5188 116.751 11.3166 116.184 10.9121C115.616 10.5042 115.278 9.93696 115.17 9.21031L116.916 9.0355C116.995 9.39197 117.163 9.66104 117.42 9.8427C117.677 10.0244 118.012 10.1152 118.424 10.1152C118.849 10.1152 119.191 10.0244 119.448 9.8427C119.708 9.66104 119.839 9.43653 119.839 9.16918C119.839 8.94296 119.755 8.75615 119.586 8.60877C119.422 8.46138 119.164 8.34827 118.815 8.26943L117.519 7.98666C116.79 7.82899 116.251 7.56335 115.902 7.18974C115.552 6.81271 115.379 6.33627 115.382 5.76044C115.379 5.27372 115.506 4.85212 115.763 4.49565C116.024 4.13576 116.385 3.85812 116.846 3.66275C117.311 3.46395 117.847 3.36455 118.454 3.36455C119.344 3.36455 120.045 3.56164 120.556 3.95581C121.07 4.34998 121.388 4.88297 121.51 5.55478Z" fill="#282828"/>
</svg>
