<svg width="88" height="13" viewBox="0 0 88 13" fill="none" xmlns="http://www.w3.org/2000/svg">
<path d="M2.26134 12H0.397705L4.58521 0.363681H6.61361L10.8011 12H8.93748L5.64771 2.47732H5.5568L2.26134 12ZM2.57384 7.44323H8.6193V8.9205H2.57384V7.44323Z" fill="black"/>
<path d="M15.4716 12.1705C14.767 12.1705 14.1382 11.9906 13.5852 11.6307C13.036 11.2671 12.6041 10.75 12.2898 10.0796C11.9791 9.40535 11.8238 8.59664 11.8238 7.65345C11.8238 6.71027 11.981 5.90345 12.2954 5.233C12.6136 4.56254 13.0492 4.04929 13.6023 3.69323C14.1553 3.33717 14.7822 3.15914 15.4829 3.15914C16.0246 3.15914 16.4602 3.25004 16.7897 3.43186C17.1231 3.60989 17.3807 3.81823 17.5625 4.05686C17.7481 4.2955 17.892 4.50573 17.9943 4.68754H18.0966V0.363681H19.7954V12H18.1363V10.6421H17.9943C17.892 10.8277 17.7443 11.0398 17.5511 11.2785C17.3617 11.5171 17.1004 11.7254 16.767 11.9035C16.4337 12.0815 16.0019 12.1705 15.4716 12.1705ZM15.8466 10.7216C16.3352 10.7216 16.7481 10.5928 17.0852 10.3353C17.4261 10.0739 17.6837 9.71217 17.8579 9.25004C18.036 8.78792 18.125 8.25004 18.125 7.63641C18.125 7.03035 18.0379 6.50004 17.8636 6.0455C17.6894 5.59095 17.4337 5.23679 17.0966 4.983C16.7594 4.72921 16.3428 4.60232 15.8466 4.60232C15.3352 4.60232 14.9091 4.73489 14.5682 5.00004C14.2273 5.2652 13.9697 5.62694 13.7954 6.08527C13.625 6.54361 13.5398 7.06065 13.5398 7.63641C13.5398 8.21974 13.6269 8.74436 13.8011 9.21027C13.9754 9.67618 14.2329 10.0455 14.5738 10.3182C14.9185 10.5872 15.3428 10.7216 15.8466 10.7216Z" fill="black"/>
<path d="M25.4872 12.1705C24.7826 12.1705 24.1539 11.9906 23.6008 11.6307C23.0516 11.2671 22.6198 10.75 22.3054 10.0796C21.9948 9.40535 21.8395 8.59664 21.8395 7.65345C21.8395 6.71027 21.9967 5.90345 22.3111 5.233C22.6292 4.56254 23.0648 4.04929 23.6179 3.69323C24.1709 3.33717 24.7978 3.15914 25.4986 3.15914C26.0402 3.15914 26.4758 3.25004 26.8054 3.43186C27.1387 3.60989 27.3963 3.81823 27.5781 4.05686C27.7637 4.2955 27.9076 4.50573 28.0099 4.68754H28.1122V0.363681H29.8111V12H28.152V10.6421H28.0099C27.9076 10.8277 27.7599 11.0398 27.5667 11.2785C27.3773 11.5171 27.116 11.7254 26.7826 11.9035C26.4493 12.0815 26.0175 12.1705 25.4872 12.1705ZM25.8622 10.7216C26.3508 10.7216 26.7637 10.5928 27.1008 10.3353C27.4417 10.0739 27.6993 9.71217 27.8736 9.25004C28.0516 8.78792 28.1406 8.25004 28.1406 7.63641C28.1406 7.03035 28.0535 6.50004 27.8792 6.0455C27.705 5.59095 27.4493 5.23679 27.1122 4.983C26.7751 4.72921 26.3584 4.60232 25.8622 4.60232C25.3508 4.60232 24.9247 4.73489 24.5838 5.00004C24.2429 5.2652 23.9853 5.62694 23.8111 6.08527C23.6406 6.54361 23.5554 7.06065 23.5554 7.63641C23.5554 8.21974 23.6425 8.74436 23.8167 9.21027C23.991 9.67618 24.2486 10.0455 24.5895 10.3182C24.9342 10.5872 25.3584 10.7216 25.8622 10.7216Z" fill="black"/>
<path d="M40.544 3.27277V4.63641H35.777V3.27277H40.544ZM37.0554 1.18186H38.7542V9.43754C38.7542 9.76709 38.8035 10.0152 38.902 10.1819C39.0005 10.3447 39.1273 10.4565 39.2826 10.5171C39.4417 10.5739 39.6141 10.6023 39.7997 10.6023C39.9361 10.6023 40.0554 10.5928 40.1576 10.5739C40.2599 10.555 40.3395 10.5398 40.3963 10.5285L40.7031 11.9319C40.6046 11.9697 40.4645 12.0076 40.2826 12.0455C40.1008 12.0872 39.8736 12.1099 39.6008 12.1137C39.1539 12.1213 38.7372 12.0417 38.3508 11.875C37.9645 11.7084 37.652 11.4508 37.4133 11.1023C37.1747 10.7538 37.0554 10.3163 37.0554 9.78982V1.18186Z" fill="black"/>
<path d="M46.0057 12.1762C45.1875 12.1762 44.4735 11.9887 43.8636 11.6137C43.2538 11.2387 42.7803 10.7141 42.4432 10.0398C42.106 9.36558 41.9375 8.5777 41.9375 7.67618C41.9375 6.77088 42.106 5.97921 42.4432 5.30118C42.7803 4.62315 43.2538 4.09664 43.8636 3.72164C44.4735 3.34664 45.1875 3.15914 46.0057 3.15914C46.8238 3.15914 47.5379 3.34664 48.1477 3.72164C48.7576 4.09664 49.231 4.62315 49.5682 5.30118C49.9053 5.97921 50.0738 6.77088 50.0738 7.67618C50.0738 8.5777 49.9053 9.36558 49.5682 10.0398C49.231 10.7141 48.7576 11.2387 48.1477 11.6137C47.5379 11.9887 46.8238 12.1762 46.0057 12.1762ZM46.0113 10.75C46.5416 10.75 46.981 10.6099 47.3295 10.3296C47.678 10.0493 47.9356 9.67618 48.1022 9.21027C48.2727 8.74436 48.3579 8.2311 48.3579 7.6705C48.3579 7.11368 48.2727 6.60232 48.1022 6.13641C47.9356 5.66671 47.678 5.28982 47.3295 5.00573C46.981 4.72164 46.5416 4.57959 46.0113 4.57959C45.4772 4.57959 45.0341 4.72164 44.6818 5.00573C44.3333 5.28982 44.0738 5.66671 43.9034 6.13641C43.7367 6.60232 43.6534 7.11368 43.6534 7.6705C43.6534 8.2311 43.7367 8.74436 43.9034 9.21027C44.0738 9.67618 44.3333 10.0493 44.6818 10.3296C45.0341 10.6099 45.4772 10.75 46.0113 10.75Z" fill="black"/>
<path d="M66.0057 4.14777H64.2329C64.1647 3.76898 64.0379 3.43565 63.8522 3.14777C63.6666 2.85989 63.4394 2.61557 63.1704 2.41482C62.9015 2.21406 62.6004 2.06254 62.267 1.96027C61.9375 1.858 61.5871 1.80686 61.2159 1.80686C60.5454 1.80686 59.9451 1.97542 59.4147 2.31254C58.8882 2.64967 58.4716 3.14398 58.1647 3.7955C57.8617 4.44701 57.7102 5.24247 57.7102 6.18186C57.7102 7.12883 57.8617 7.92807 58.1647 8.57959C58.4716 9.2311 58.8901 9.72353 59.4204 10.0569C59.9507 10.3902 60.5473 10.5569 61.2102 10.5569C61.5776 10.5569 61.9261 10.5076 62.2557 10.4091C62.589 10.3069 62.8901 10.1572 63.1591 9.96027C63.428 9.7633 63.6553 9.52277 63.8409 9.23868C64.0303 8.9508 64.161 8.62126 64.2329 8.25004L66.0057 8.25573C65.911 8.8277 65.7272 9.35421 65.4545 9.83527C65.1856 10.3125 64.839 10.7254 64.4147 11.0739C63.9943 11.4186 63.5132 11.6857 62.9716 11.875C62.4299 12.0644 61.839 12.1591 61.1988 12.1591C60.1913 12.1591 59.2935 11.9205 58.5057 11.4432C57.7178 10.9622 57.0966 10.2747 56.642 9.38073C56.1913 8.48679 55.9659 7.4205 55.9659 6.18186C55.9659 4.93944 56.1932 3.87315 56.6477 2.983C57.1022 2.08906 57.7235 1.40345 58.5113 0.926181C59.2992 0.44512 60.1951 0.20459 61.1988 0.20459C61.8163 0.20459 62.392 0.293605 62.9261 0.471636C63.464 0.645878 63.9469 0.903453 64.375 1.24436C64.803 1.58148 65.1572 1.99436 65.4375 2.483C65.7178 2.96785 65.9072 3.52277 66.0057 4.14777Z" fill="black"/>
<path d="M70.5099 12.1932C69.9569 12.1932 69.4569 12.091 69.0099 11.8864C68.563 11.6781 68.2088 11.3769 67.9474 10.983C67.6898 10.5891 67.5611 10.1061 67.5611 9.53414C67.5611 9.04171 67.6558 8.63641 67.8451 8.31823C68.0345 8.00004 68.2902 7.74815 68.6122 7.56254C68.9342 7.37694 69.294 7.23679 69.6917 7.14209C70.0895 7.04739 70.4948 6.97542 70.9076 6.92618C71.4304 6.86557 71.8546 6.81633 72.1804 6.77845C72.5061 6.73679 72.7429 6.6705 72.8906 6.57959C73.0383 6.48868 73.1122 6.34095 73.1122 6.13641V6.09663C73.1122 5.60042 72.972 5.21595 72.6917 4.94323C72.4152 4.6705 72.0023 4.53414 71.4531 4.53414C70.8811 4.53414 70.4304 4.66103 70.1008 4.91482C69.7751 5.16482 69.5497 5.44323 69.4247 5.75004L67.8281 5.38641C68.0175 4.85611 68.294 4.42807 68.6576 4.10232C69.0251 3.77277 69.4474 3.53414 69.9247 3.38641C70.402 3.23489 70.9039 3.15914 71.4304 3.15914C71.7789 3.15914 72.1482 3.2008 72.5383 3.28414C72.9323 3.36368 73.2997 3.51141 73.6406 3.72732C73.9853 3.94323 74.2675 4.25194 74.4872 4.65345C74.7069 5.05118 74.8167 5.56823 74.8167 6.20459V12H73.1576V10.8069H73.0895C72.9796 11.0266 72.8148 11.2425 72.5951 11.4546C72.3755 11.6667 72.0933 11.8428 71.7486 11.983C71.4039 12.1232 70.991 12.1932 70.5099 12.1932ZM70.8792 10.8296C71.3489 10.8296 71.7505 10.7368 72.0838 10.5512C72.4209 10.3656 72.6766 10.1232 72.8508 9.82391C73.0289 9.52088 73.1179 9.19701 73.1179 8.85232V7.72732C73.0573 7.78792 72.9398 7.84474 72.7656 7.89777C72.5951 7.94701 72.4001 7.99058 72.1804 8.02845C71.9607 8.06254 71.7467 8.09474 71.5383 8.12504C71.33 8.15156 71.1558 8.17429 71.0156 8.19323C70.6861 8.23489 70.3849 8.30497 70.1122 8.40345C69.8433 8.50194 69.6273 8.64398 69.4645 8.82959C69.3054 9.01141 69.2258 9.25383 69.2258 9.55686C69.2258 9.97732 69.3811 10.2955 69.6917 10.5114C70.0023 10.7235 70.3982 10.8296 70.8792 10.8296Z" fill="black"/>
<path d="M77.0795 12V3.27277H78.7216V4.65914H78.8125C78.9716 4.18944 79.2519 3.82012 79.6534 3.55118C80.0587 3.27845 80.517 3.14209 81.0284 3.14209C81.1345 3.14209 81.2595 3.14588 81.4034 3.15345C81.5511 3.16103 81.6666 3.1705 81.75 3.18186V4.80686C81.6818 4.78792 81.5606 4.76709 81.3863 4.74436C81.2121 4.71785 81.0379 4.70459 80.8636 4.70459C80.4621 4.70459 80.1041 4.78982 79.7897 4.96027C79.4791 5.12694 79.2329 5.35989 79.0511 5.65913C78.8693 5.95459 78.7784 6.29171 78.7784 6.6705V12H77.0795Z" fill="black"/>
<path d="M87.8096 3.27277V4.63641H83.0426V3.27277H87.8096ZM84.321 1.18186H86.0199V9.43754C86.0199 9.76709 86.0691 10.0152 86.1676 10.1819C86.2661 10.3447 86.393 10.4565 86.5483 10.5171C86.7074 10.5739 86.8797 10.6023 87.0653 10.6023C87.2017 10.6023 87.321 10.5928 87.4233 10.5739C87.5255 10.555 87.6051 10.5398 87.6619 10.5285L87.9687 11.9319C87.8702 11.9697 87.7301 12.0076 87.5483 12.0455C87.3665 12.0872 87.1392 12.1099 86.8665 12.1137C86.4195 12.1213 86.0028 12.0417 85.6165 11.875C85.2301 11.7084 84.9176 11.4508 84.679 11.1023C84.4403 10.7538 84.321 10.3163 84.321 9.78982V1.18186Z" fill="black"/>
</svg>
