<svg width="84" height="20" viewBox="0 0 84 20" fill="none" xmlns="http://www.w3.org/2000/svg">
<path d="M0.598022 15V0.45459H5.92473C6.95692 0.45459 7.81156 0.625045 8.48865 0.965954C9.16573 1.30213 9.67236 1.75904 10.0085 2.33669C10.3447 2.90961 10.5128 3.55592 10.5128 4.27561C10.5128 4.88167 10.4015 5.39304 10.179 5.8097C9.95645 6.22164 9.65816 6.55307 9.2841 6.80402C8.91478 7.05023 8.50759 7.23016 8.06251 7.34379V7.48584C8.54547 7.50951 9.01658 7.66576 9.47586 7.95459C9.93988 8.23868 10.3234 8.64351 10.6264 9.16908C10.9295 9.69465 11.081 10.3339 11.081 11.0867C11.081 11.8301 10.9058 12.4977 10.5554 13.0895C10.2098 13.6767 9.67473 14.143 8.9503 14.4887C8.22586 14.8296 7.3002 15 6.17331 15H0.598022ZM2.79262 13.1179H5.96024C7.01137 13.1179 7.76422 12.9143 8.21876 12.5071C8.67331 12.1 8.90058 11.591 8.90058 10.9802C8.90058 10.5209 8.78458 10.0995 8.55257 9.71595C8.32056 9.33243 7.98912 9.02703 7.55825 8.79976C7.13211 8.57249 6.62548 8.45885 6.03836 8.45885H2.79262V13.1179ZM2.79262 6.7472H5.73297C6.22539 6.7472 6.6681 6.65251 7.06109 6.46311C7.45882 6.27372 7.77369 6.00857 8.00569 5.66766C8.24244 5.32201 8.36081 4.91482 8.36081 4.44607C8.36081 3.84474 8.15011 3.34048 7.7287 2.93328C7.3073 2.52609 6.661 2.32249 5.78978 2.32249H2.79262V6.7472Z" fill="black"/>
<path d="M20.424 10.4759V4.09095H22.5547V15H20.4666V13.1108H20.353C20.102 13.6932 19.6996 14.1785 19.1456 14.5668C18.5964 14.9503 17.9122 15.1421 17.0931 15.1421C16.3923 15.1421 15.772 14.9882 15.2323 14.6804C14.6972 14.3679 14.2758 13.9063 13.9681 13.2955C13.665 12.6847 13.5135 11.9295 13.5135 11.0299V4.09095H15.6371V10.7742C15.6371 11.5176 15.8431 12.1094 16.255 12.5498C16.6669 12.9901 17.202 13.2103 17.8601 13.2103C18.2578 13.2103 18.6532 13.1108 19.0462 12.912C19.4439 12.7131 19.773 12.4124 20.0334 12.01C20.2985 11.6075 20.4288 11.0962 20.424 10.4759Z" fill="black"/>
<path d="M26.7504 19.091C26.4331 19.091 26.1443 19.0649 25.8839 19.0128C25.6235 18.9655 25.4293 18.9134 25.3015 18.8566L25.8129 17.1165C26.2011 17.2207 26.5468 17.2657 26.8498 17.2515C27.1528 17.2373 27.4203 17.1236 27.6524 16.9106C27.8891 16.6975 28.0974 16.3495 28.2774 15.8665L28.5401 15.1421L24.5487 4.09095H26.8214L29.5842 12.5569H29.6978L32.4606 4.09095H34.7404L30.2447 16.456C30.0364 17.0242 29.7712 17.5048 29.4492 17.8978C29.1273 18.2955 28.7437 18.5938 28.2987 18.7927C27.8536 18.9915 27.3375 19.091 26.7504 19.091Z" fill="black"/>
<path d="M53.9396 0.45459V15H51.9226L44.5291 4.33243H44.3942V15H42.1996V0.45459H44.2308L51.6314 11.1364H51.7663V0.45459H53.9396Z" fill="black"/>
<path d="M61.5657 15.2202C60.543 15.2202 59.6505 14.9858 58.8881 14.5171C58.1258 14.0483 57.534 13.3926 57.1126 12.5498C56.6912 11.707 56.4805 10.7221 56.4805 9.59521C56.4805 8.46359 56.6912 7.474 57.1126 6.62646C57.534 5.77893 58.1258 5.12078 58.8881 4.65203C59.6505 4.18328 60.543 3.94891 61.5657 3.94891C62.5884 3.94891 63.481 4.18328 64.2433 4.65203C65.0056 5.12078 65.5974 5.77893 66.0188 6.62646C66.4402 7.474 66.6509 8.46359 66.6509 9.59521C66.6509 10.7221 66.4402 11.707 66.0188 12.5498C65.5974 13.3926 65.0056 14.0483 64.2433 14.5171C63.481 14.9858 62.5884 15.2202 61.5657 15.2202ZM61.5728 13.4375C62.2357 13.4375 62.7849 13.2624 63.2205 12.912C63.6561 12.5616 63.9781 12.0952 64.1864 11.5128C64.3995 10.9304 64.506 10.2889 64.506 9.58811C64.506 8.89209 64.3995 8.25288 64.1864 7.6705C63.9781 7.08338 63.6561 6.61226 63.2205 6.25715C62.7849 5.90203 62.2357 5.72448 61.5728 5.72448C60.9052 5.72448 60.3512 5.90203 59.9109 6.25715C59.4753 6.61226 59.1509 7.08338 58.9379 7.6705C58.7295 8.25288 58.6254 8.89209 58.6254 9.58811C58.6254 10.2889 58.7295 10.9304 58.9379 11.5128C59.1509 12.0952 59.4753 12.5616 59.9109 12.912C60.3512 13.2624 60.9052 13.4375 61.5728 13.4375Z" fill="black"/>
<path d="M71.0543 15L67.8441 4.09095H70.0387L72.1765 12.1023H72.283L74.4279 4.09095H76.6225L78.7532 12.0668H78.8597L80.9833 4.09095H83.1779L79.9748 15H77.8086L75.5927 7.12362H75.4293L73.2134 15H71.0543Z" fill="black"/>
</svg>
