<svg width="97" height="29" viewBox="0 0 97 29" fill="none" xmlns="http://www.w3.org/2000/svg">
<g filter="url(#filter0_d_53_368)">
<path d="M4.02185 20V0.399994H16.3699V3.312H7.04585V17.088H16.3699V20H4.02185ZM5.39385 11.404V8.492H14.8299V11.404H5.39385Z" fill="#1E1E1E"/>
<path d="M20.2411 13.42V10.564H28.3051V13.42H20.2411Z" fill="#1E1E1E"/>
<path d="M40.7526 20.28C39.3899 20.28 38.1393 20.0373 37.0006 19.552C35.8619 19.0667 34.8726 18.376 34.0326 17.48C33.1926 16.5653 32.5393 15.492 32.0726 14.26C31.6246 13.028 31.4006 11.6747 31.4006 10.2C31.4006 8.8 31.6433 7.50266 32.1286 6.30799C32.6326 5.09466 33.3233 4.03066 34.2006 3.116C35.0779 2.20133 36.0953 1.492 37.2526 0.987995C38.4099 0.483995 39.6606 0.231995 41.0046 0.231995C41.9566 0.231995 42.8806 0.381328 43.7766 0.679995C44.6913 0.959995 45.5126 1.36133 46.2406 1.884C46.9873 2.388 47.5939 2.96666 48.0606 3.62L46.0446 5.72C45.5033 5.17866 44.9526 4.73066 44.3926 4.376C43.8513 4.00266 43.2913 3.72266 42.7126 3.536C42.1526 3.34933 41.5833 3.25599 41.0046 3.25599C40.0899 3.25599 39.2313 3.43333 38.4286 3.78799C37.6446 4.12399 36.9539 4.59999 36.3566 5.216C35.7779 5.832 35.3206 6.56933 34.9846 7.428C34.6486 8.268 34.4806 9.192 34.4806 10.2C34.4806 11.264 34.6393 12.2347 34.9566 13.112C35.2926 13.9707 35.7593 14.708 36.3566 15.324C36.9539 15.94 37.6633 16.416 38.4846 16.752C39.3246 17.0693 40.2486 17.228 41.2566 17.228C41.8726 17.228 42.4793 17.144 43.0766 16.976C43.6739 16.808 44.2339 16.5653 44.7566 16.248C45.2793 15.9307 45.7553 15.5573 46.1846 15.128L47.6966 17.592C47.2673 18.096 46.6793 18.5533 45.9326 18.964C45.2046 19.3747 44.3833 19.7013 43.4686 19.944C42.5726 20.168 41.6673 20.28 40.7526 20.28Z" fill="#1E1E1E"/>
<path d="M60.2885 20.28C58.9072 20.28 57.6285 20.028 56.4525 19.524C55.2952 19.02 54.2778 18.32 53.4005 17.424C52.5418 16.5093 51.8698 15.4453 51.3845 14.232C50.9178 13 50.6845 11.656 50.6845 10.2C50.6845 8.74399 50.9178 7.40933 51.3845 6.196C51.8698 4.964 52.5418 3.89999 53.4005 3.00399C54.2778 2.08933 55.2952 1.38 56.4525 0.875996C57.6285 0.371995 58.9072 0.119995 60.2885 0.119995C61.6698 0.119995 62.9392 0.371995 64.0965 0.875996C65.2725 1.38 66.2898 2.08933 67.1485 3.00399C68.0258 3.91866 68.6978 4.99199 69.1645 6.224C69.6498 7.43733 69.8925 8.76266 69.8925 10.2C69.8925 11.6373 69.6498 12.972 69.1645 14.204C68.6978 15.4173 68.0258 16.4813 67.1485 17.396C66.2898 18.3107 65.2725 19.02 64.0965 19.524C62.9392 20.028 61.6698 20.28 60.2885 20.28ZM60.2885 17.34C61.2405 17.34 62.1085 17.1627 62.8925 16.808C63.6952 16.4533 64.3858 15.9587 64.9645 15.324C65.5432 14.6707 65.9912 13.9147 66.3085 13.056C66.6445 12.1787 66.8125 11.2267 66.8125 10.2C66.8125 9.17333 66.6445 8.23066 66.3085 7.372C65.9912 6.49466 65.5432 5.73866 64.9645 5.104C64.3858 4.45066 63.6952 3.94666 62.8925 3.592C62.1085 3.23733 61.2405 3.06 60.2885 3.06C59.3365 3.06 58.4592 3.23733 57.6565 3.592C56.8725 3.94666 56.1818 4.44133 55.5845 5.07599C55.0058 5.71066 54.5578 6.46666 54.2405 7.344C53.9232 8.20266 53.7645 9.15466 53.7645 10.2C53.7645 11.2267 53.9232 12.1787 54.2405 13.056C54.5578 13.9333 55.0058 14.6893 55.5845 15.324C56.1818 15.9587 56.8725 16.4533 57.6565 16.808C58.4592 17.1627 59.3365 17.34 60.2885 17.34Z" fill="#1E1E1E"/>
<path d="M74.2669 20V0.399994H77.2348L84.3748 12.02L82.9469 11.992L90.1709 0.399994H92.9708V20H89.9469V11.964C89.9469 10.284 89.9842 8.772 90.0589 7.428C90.1522 6.084 90.3015 4.74933 90.5069 3.424L90.8988 4.46L84.4869 14.372H82.6388L76.4229 4.572L76.7309 3.424C76.9362 4.67466 77.0762 5.96266 77.1508 7.288C77.2442 8.59466 77.2908 10.1533 77.2908 11.964V20H74.2669Z" fill="#1E1E1E"/>
</g>
<defs>
<filter id="filter0_d_53_368" x="0.0218506" y="0.119995" width="96.949" height="28.16" filterUnits="userSpaceOnUse" color-interpolation-filters="sRGB">
<feFlood flood-opacity="0" result="BackgroundImageFix"/>
<feColorMatrix in="SourceAlpha" type="matrix" values="0 0 0 0 0 0 0 0 0 0 0 0 0 0 0 0 0 0 127 0" result="hardAlpha"/>
<feOffset dy="4"/>
<feGaussianBlur stdDeviation="2"/>
<feComposite in2="hardAlpha" operator="out"/>
<feColorMatrix type="matrix" values="0 0 0 0 0 0 0 0 0 0 0 0 0 0 0 0 0 0 0.25 0"/>
<feBlend mode="normal" in2="BackgroundImageFix" result="effect1_dropShadow_53_368"/>
<feBlend mode="normal" in="SourceGraphic" in2="effect1_dropShadow_53_368" result="shape"/>
</filter>
</defs>
</svg>
