<svg width="39" height="11" viewBox="0 0 39 11" fill="none" xmlns="http://www.w3.org/2000/svg">
<path d="M0.476929 10.5078V0.325989H2.32139V4.63636H7.03943V0.325989H8.88886V10.5078H7.03943V6.18252H2.32139V10.5078H0.476929Z" fill="#282828"/>
<path d="M14.1463 10.657C13.4006 10.657 12.7543 10.4929 12.2074 10.1648C11.6605 9.83664 11.2363 9.3776 10.9347 8.78764C10.6364 8.19768 10.4872 7.50828 10.4872 6.71946C10.4872 5.93063 10.6364 5.23958 10.9347 4.6463C11.2363 4.05303 11.6605 3.59232 12.2074 3.2642C12.7543 2.93607 13.4006 2.77201 14.1463 2.77201C14.8921 2.77201 15.5384 2.93607 16.0852 3.2642C16.6321 3.59232 17.0547 4.05303 17.353 4.6463C17.6546 5.23958 17.8054 5.93063 17.8054 6.71946C17.8054 7.50828 17.6546 8.19768 17.353 8.78764C17.0547 9.3776 16.6321 9.83664 16.0852 10.1648C15.5384 10.4929 14.8921 10.657 14.1463 10.657ZM14.1563 9.21519C14.5606 9.21519 14.8987 9.10416 15.1705 8.8821C15.4422 8.65672 15.6444 8.35511 15.777 7.97727C15.9129 7.59943 15.9808 7.1785 15.9808 6.71448C15.9808 6.24715 15.9129 5.82457 15.777 5.44673C15.6444 5.06557 15.4422 4.76231 15.1705 4.53693C14.8987 4.31155 14.5606 4.19886 14.1563 4.19886C13.742 4.19886 13.3973 4.31155 13.1222 4.53693C12.8504 4.76231 12.6466 5.06557 12.5107 5.44673C12.3781 5.82457 12.3118 6.24715 12.3118 6.71448C12.3118 7.1785 12.3781 7.59943 12.5107 7.97727C12.6466 8.35511 12.8504 8.65672 13.1222 8.8821C13.3973 9.10416 13.742 9.21519 14.1563 9.21519Z" fill="#282828"/>
<path d="M19.3329 10.5078V2.87144H21.0531V4.16903H21.1426C21.3017 3.73153 21.5652 3.39015 21.9331 3.14488C22.301 2.8963 22.7401 2.77201 23.2505 2.77201C23.7676 2.77201 24.2034 2.89796 24.5581 3.14985C24.916 3.39843 25.1679 3.73816 25.3138 4.16903H25.3933C25.5623 3.74479 25.8474 3.40672 26.2484 3.15482C26.6528 2.89962 27.1317 2.77201 27.6852 2.77201C28.3879 2.77201 28.9612 2.99408 29.4054 3.4382C29.8495 3.88233 30.0716 4.5303 30.0716 5.3821V10.5078H28.2669V5.66051C28.2669 5.18655 28.1409 4.84019 27.889 4.62144C27.6371 4.39938 27.3289 4.28835 26.9643 4.28835C26.5301 4.28835 26.1904 4.42424 25.9451 4.69602C25.7032 4.96448 25.5822 5.31415 25.5822 5.74502V10.5078H23.8173V5.58593C23.8173 5.19152 23.698 4.87665 23.4594 4.64133C23.224 4.40601 22.9158 4.28835 22.5346 4.28835C22.2761 4.28835 22.0408 4.35463 21.8287 4.48721C21.6165 4.61647 21.4475 4.80042 21.3216 5.03906C21.1956 5.27438 21.1326 5.54947 21.1326 5.86434V10.5078H19.3329Z" fill="#282828"/>
<path d="M35.2781 10.657C34.5124 10.657 33.8512 10.4979 33.2944 10.1797C32.7409 9.85819 32.315 9.40411 32.0167 8.81747C31.7184 8.2275 31.5693 7.53314 31.5693 6.73437C31.5693 5.94886 31.7184 5.25946 32.0167 4.66619C32.3183 4.0696 32.7392 3.60558 33.2795 3.27414C33.8197 2.93939 34.4544 2.77201 35.1836 2.77201C35.6543 2.77201 36.0984 2.84824 36.516 3.0007C36.9369 3.14985 37.3081 3.38186 37.6296 3.69673C37.9544 4.01159 38.2096 4.41264 38.3953 4.89985C38.5809 5.38375 38.6737 5.96046 38.6737 6.62997V7.18181H32.4144V5.96874H36.9485C36.9452 5.62405 36.8706 5.31747 36.7248 5.049C36.579 4.77722 36.3751 4.56344 36.1133 4.40766C35.8548 4.25189 35.5532 4.174 35.2085 4.174C34.8406 4.174 34.5174 4.26349 34.239 4.44247C33.9606 4.61813 33.7435 4.85014 33.5877 5.13849C33.4353 5.42353 33.3574 5.73674 33.3541 6.07812V7.13707C33.3541 7.5812 33.4353 7.96235 33.5977 8.28053C33.7601 8.5954 33.9871 8.83735 34.2788 9.00639C34.5704 9.17211 34.9118 9.25497 35.3029 9.25497C35.5648 9.25497 35.8017 9.21851 36.0139 9.14559C36.226 9.06936 36.4099 8.95833 36.5657 8.81249C36.7215 8.66666 36.8391 8.48603 36.9187 8.27059L38.5991 8.45951C38.493 8.90364 38.2908 9.29142 37.9926 9.62286C37.6976 9.95099 37.3197 10.2062 36.859 10.3885C36.3983 10.5675 35.8713 10.657 35.2781 10.657Z" fill="#282828"/>
</svg>
