<svg width="19" height="18" viewBox="0 0 19 18" fill="none" xmlns="http://www.w3.org/2000/svg">
<path d="M12.143 5.90392L16.2246 6.52493C16.5626 6.57473 16.8466 6.82079 16.9546 7.15767C17.0625 7.49747 16.9744 7.86656 16.7302 8.11848L13.7705 11.1122L14.4693 15.4066C14.5261 15.7582 14.3869 16.1155 14.1028 16.3235C13.8217 16.5315 13.4496 16.5579 13.1457 16.3909L9.49865 14.3843L5.85449 16.3909C5.54773 16.5579 5.17565 16.5315 4.89445 16.3235C4.61326 16.1155 4.47124 15.7582 4.53089 15.4066L5.22961 11.1122L2.26941 8.11848C2.02485 7.86656 1.93794 7.49747 2.0453 7.15767C2.15239 6.82079 2.43557 6.57473 2.77613 6.52493L6.85429 5.90392L8.68347 2.02754C8.83401 1.70485 9.15213 1.5 9.49865 1.5C9.84801 1.5 10.1661 1.70485 10.3167 2.02754L12.143 5.90392Z" fill="#FFC831"/>
</svg>
