<svg width="46" height="39" viewBox="0 0 46 39" fill="none" xmlns="http://www.w3.org/2000/svg">
<path fill-rule="evenodd" clip-rule="evenodd" d="M23 0C16.6397 0 11.5 4.37116 11.5 9.75C5.13966 9.75 0 14.1212 0 19.5C0 24.8925 5.13966 29.25 11.5 29.25C11.5 34.6425 16.6397 39 23 39C29.3603 39 34.5 34.6425 34.5 29.25C40.8603 29.25 46 24.8925 46 19.5C46 14.1212 40.8603 9.75 34.5 9.75C34.5 4.37116 29.3603 0 23 0ZM34.5 9.75V14.625C37.6641 14.625 40.25 16.8174 40.25 19.5C40.25 22.1826 37.6641 24.375 34.5 24.375V29.25H28.75C28.75 31.9326 26.1641 34.125 23 34.125C19.8359 34.125 17.25 31.9326 17.25 29.25H11.5V24.375C8.33589 24.375 5.75 22.1826 5.75 19.5C5.75 16.8174 8.33589 14.625 11.5 14.625V9.75H17.25C17.25 7.06739 19.8359 4.875 23 4.875C26.1641 4.875 28.75 7.06739 28.75 9.75H34.5ZM23 28.5964C28.9428 28.5964 33.7291 24.5112 33.7291 19.5C33.7291 14.4616 28.9428 10.4036 23 10.4036C17.0573 10.4036 12.271 14.4616 12.271 19.5C12.271 24.5112 17.0573 28.5964 23 28.5964ZM23 24.0482C20.0447 24.0482 17.6355 22.0056 17.6355 19.5C17.6355 16.9944 20.0447 14.9518 23 14.9518C25.9553 14.9518 28.3645 16.9944 28.3645 19.5C28.3645 22.0056 25.9553 24.0482 23 24.0482Z" fill="#282828"/>
</svg>
