<svg width="128" height="14" viewBox="0 0 128 14" fill="none" xmlns="http://www.w3.org/2000/svg">
<path d="M0.227295 0.465193H2.4844L5.50712 7.84303H5.62644L8.64917 0.465193H10.9063V10.647H9.13639V3.65198H9.04193L6.228 10.6172H4.90556L2.09164 3.63707H1.99718V10.647H0.227295V0.465193Z" fill="#282828"/>
<path d="M15.0327 10.8011C14.5488 10.8011 14.1129 10.715 13.7252 10.5426C13.3407 10.3669 13.0358 10.1084 12.8104 9.76704C12.5883 9.42566 12.4773 9.00473 12.4773 8.50426C12.4773 8.07339 12.5568 7.71709 12.7159 7.43536C12.875 7.15364 13.0921 6.92826 13.3672 6.75923C13.6423 6.59019 13.9522 6.46259 14.2969 6.37642C14.6449 6.28693 15.0045 6.2223 15.3757 6.18252C15.8232 6.13612 16.1861 6.09469 16.4645 6.05823C16.7429 6.01846 16.9451 5.9588 17.071 5.87926C17.2003 5.7964 17.2649 5.66879 17.2649 5.49644V5.46661C17.2649 5.09209 17.1539 4.80208 16.9318 4.59659C16.7098 4.39109 16.3899 4.28835 15.9723 4.28835C15.5315 4.28835 15.1818 4.38446 14.9233 4.5767C14.6681 4.76893 14.4958 4.99597 14.4063 5.25781L12.7259 5.01917C12.8584 4.55516 13.0772 4.16737 13.3821 3.85582C13.687 3.54095 14.0599 3.30563 14.5007 3.14985C14.9415 2.99076 15.4288 2.91122 15.9624 2.91122C16.3303 2.91122 16.6965 2.9543 17.0611 3.04048C17.4257 3.12665 17.7588 3.26917 18.0604 3.46803C18.362 3.66358 18.604 3.93039 18.7862 4.26846C18.9719 4.60653 19.0647 5.02911 19.0647 5.53622V10.647H17.3345V9.59801H17.2749C17.1655 9.81013 17.0114 10.009 16.8125 10.1946C16.617 10.3769 16.3701 10.5244 16.0718 10.6371C15.7768 10.7464 15.4304 10.8011 15.0327 10.8011ZM15.5 9.47869C15.8613 9.47869 16.1745 9.40743 16.4397 9.26491C16.7048 9.11908 16.9086 8.92684 17.0512 8.6882C17.197 8.44957 17.2699 8.18939 17.2699 7.90767V7.00781C17.2136 7.05421 17.1174 7.0973 16.9816 7.13707C16.849 7.17684 16.6998 7.21164 16.5341 7.24147C16.3684 7.2713 16.2043 7.29782 16.0419 7.32102C15.8795 7.34422 15.7387 7.3641 15.6193 7.38068C15.3509 7.41713 15.1106 7.47679 14.8985 7.55965C14.6863 7.64251 14.519 7.75852 14.3963 7.90767C14.2737 8.0535 14.2124 8.24242 14.2124 8.47443C14.2124 8.80587 14.3334 9.0561 14.5753 9.22514C14.8173 9.39417 15.1255 9.47869 15.5 9.47869Z" fill="#282828"/>
<path d="M22.674 6.17258V10.647H20.8743V3.01065H22.5945V4.30823H22.684C22.8596 3.88068 23.1397 3.54095 23.5242 3.28906C23.912 3.03716 24.3909 2.91122 24.961 2.91122C25.4879 2.91122 25.947 3.02391 26.3381 3.24928C26.7325 3.47466 27.0374 3.80113 27.2529 4.22869C27.4716 4.65624 27.5793 5.17495 27.576 5.7848V10.647H25.7763V6.0632C25.7763 5.55279 25.6437 5.1534 25.3786 4.86505C25.1167 4.5767 24.7538 4.43252 24.2898 4.43252C23.9749 4.43252 23.6949 4.50213 23.4496 4.64133C23.2076 4.77722 23.0171 4.97443 22.8779 5.23295C22.742 5.49147 22.674 5.80468 22.674 6.17258Z" fill="#282828"/>
<path d="M31.603 10.8011C31.1191 10.8011 30.6833 10.715 30.2955 10.5426C29.911 10.3669 29.6061 10.1084 29.3807 9.76704C29.1586 9.42566 29.0476 9.00473 29.0476 8.50426C29.0476 8.07339 29.1272 7.71709 29.2862 7.43536C29.4453 7.15364 29.6624 6.92826 29.9375 6.75923C30.2126 6.59019 30.5225 6.46259 30.8672 6.37642C31.2152 6.28693 31.5748 6.2223 31.946 6.18252C32.3935 6.13612 32.7564 6.09469 33.0348 6.05823C33.3132 6.01846 33.5154 5.9588 33.6414 5.87926C33.7706 5.7964 33.8353 5.66879 33.8353 5.49644V5.46661C33.8353 5.09209 33.7242 4.80208 33.5022 4.59659C33.2801 4.39109 32.9603 4.28835 32.5426 4.28835C32.1018 4.28835 31.7522 4.38446 31.4936 4.5767C31.2384 4.76893 31.0661 4.99597 30.9766 5.25781L29.2962 5.01917C29.4288 4.55516 29.6475 4.16737 29.9524 3.85582C30.2574 3.54095 30.6302 3.30563 31.071 3.14985C31.5119 2.99076 31.9991 2.91122 32.5327 2.91122C32.9006 2.91122 33.2668 2.9543 33.6314 3.04048C33.996 3.12665 34.3291 3.26917 34.6307 3.46803C34.9323 3.66358 35.1743 3.93039 35.3566 4.26846C35.5422 4.60653 35.635 5.02911 35.635 5.53622V10.647H33.9049V9.59801H33.8452C33.7358 9.81013 33.5817 10.009 33.3828 10.1946C33.1873 10.3769 32.9404 10.5244 32.6421 10.6371C32.3471 10.7464 32.0007 10.8011 31.603 10.8011ZM32.0703 9.47869C32.4316 9.47869 32.7448 9.40743 33.01 9.26491C33.2751 9.11908 33.479 8.92684 33.6215 8.6882C33.7673 8.44957 33.8402 8.18939 33.8402 7.90767V7.00781C33.7839 7.05421 33.6878 7.0973 33.5519 7.13707C33.4193 7.17684 33.2701 7.21164 33.1044 7.24147C32.9387 7.2713 32.7746 7.29782 32.6122 7.32102C32.4498 7.34422 32.309 7.3641 32.1897 7.38068C31.9212 7.41713 31.6809 7.47679 31.4688 7.55965C31.2567 7.64251 31.0893 7.75852 30.9666 7.90767C30.844 8.0535 30.7827 8.24242 30.7827 8.47443C30.7827 8.80587 30.9037 9.0561 31.1456 9.22514C31.3876 9.39417 31.6958 9.47869 32.0703 9.47869Z" fill="#282828"/>
<path d="M40.7656 13.6697C40.1193 13.6697 39.5642 13.5819 39.1002 13.4062C38.6362 13.2339 38.2633 13.0019 37.9816 12.7102C37.6998 12.4186 37.5043 12.0954 37.3949 11.7408L39.0156 11.348C39.0886 11.4972 39.1946 11.6446 39.3338 11.7905C39.473 11.9396 39.6603 12.0623 39.8956 12.1584C40.1343 12.2578 40.4342 12.3075 40.7955 12.3075C41.3059 12.3075 41.7285 12.1832 42.0632 11.9347C42.398 11.6894 42.5654 11.285 42.5654 10.7216V9.27485H42.4759C42.3831 9.46046 42.2472 9.65104 42.0682 9.84659C41.8925 10.0421 41.6589 10.2062 41.3672 10.3388C41.0789 10.4713 40.7159 10.5376 40.2784 10.5376C39.6918 10.5376 39.1598 10.4001 38.6826 10.125C38.2086 9.84659 37.8307 9.43229 37.549 8.8821C37.2706 8.32859 37.1314 7.63589 37.1314 6.80397C37.1314 5.96543 37.2706 5.25781 37.549 4.6811C37.8307 4.10108 38.2103 3.66193 38.6875 3.36363C39.1648 3.06202 39.6968 2.91122 40.2834 2.91122C40.7308 2.91122 41.0987 2.98745 41.3871 3.13991C41.6788 3.28906 41.9108 3.46969 42.0831 3.68181C42.2555 3.89062 42.3864 4.08783 42.4759 4.27343H42.5753V3.01065H44.3502V10.7713C44.3502 11.4242 44.1944 11.9645 43.8828 12.392C43.5713 12.8196 43.1454 13.1394 42.6051 13.3516C42.0649 13.5637 41.4517 13.6697 40.7656 13.6697ZM40.7806 9.1257C41.1617 9.1257 41.4865 9.0329 41.755 8.8473C42.0235 8.66169 42.2273 8.39488 42.3665 8.04687C42.5057 7.69886 42.5753 7.28125 42.5753 6.79403C42.5753 6.31344 42.5057 5.89251 42.3665 5.53124C42.2306 5.16998 42.0284 4.88991 41.76 4.69105C41.4948 4.48887 41.1683 4.38778 40.7806 4.38778C40.3795 4.38778 40.0448 4.49218 39.7763 4.70099C39.5078 4.9098 39.3057 5.19649 39.1698 5.56107C39.0339 5.92234 38.9659 6.33333 38.9659 6.79403C38.9659 7.26136 39.0339 7.67069 39.1698 8.02201C39.309 8.37002 39.5128 8.6418 39.7813 8.83735C40.0531 9.02959 40.3862 9.1257 40.7806 9.1257Z" fill="#282828"/>
<path d="M49.5753 10.7962C48.8097 10.7962 48.1485 10.6371 47.5916 10.3189C47.0381 9.99739 46.6122 9.54332 46.3139 8.95667C46.0156 8.36671 45.8665 7.67234 45.8665 6.87357C45.8665 6.08806 46.0156 5.39867 46.3139 4.80539C46.6156 4.2088 47.0365 3.74479 47.5767 3.41335C48.117 3.07859 48.7517 2.91122 49.4808 2.91122C49.9515 2.91122 50.3956 2.98745 50.8132 3.13991C51.2342 3.28906 51.6054 3.52106 51.9269 3.83593C52.2517 4.1508 52.5069 4.55184 52.6925 5.03906C52.8781 5.52296 52.9709 6.09966 52.9709 6.76917V7.32102H46.7117V6.10795H51.2458C51.2424 5.76325 51.1679 5.45667 51.022 5.1882C50.8762 4.91642 50.6724 4.70265 50.4105 4.54687C50.152 4.39109 49.8504 4.3132 49.5057 4.3132C49.1378 4.3132 48.8147 4.40269 48.5362 4.58167C48.2578 4.75733 48.0407 4.98934 47.885 5.27769C47.7325 5.56273 47.6546 5.87594 47.6513 6.21732V7.27627C47.6513 7.7204 47.7325 8.10156 47.8949 8.41974C48.0573 8.73461 48.2843 8.97656 48.576 9.14559C48.8677 9.31131 49.2091 9.39417 49.6002 9.39417C49.862 9.39417 50.099 9.35771 50.3111 9.2848C50.5232 9.20856 50.7072 9.09753 50.8629 8.9517C51.0187 8.80587 51.1364 8.62523 51.2159 8.4098L52.8963 8.59872C52.7903 9.04284 52.5881 9.43063 52.2898 9.76207C51.9948 10.0902 51.617 10.3454 51.1563 10.5277C50.6956 10.7067 50.1686 10.7962 49.5753 10.7962Z" fill="#282828"/>
<path d="M58.0457 0.465193H60.3028L63.3255 7.84303H63.4448L66.4675 0.465193H68.7246V10.647H66.9547V3.65198H66.8603L64.0464 10.6172H62.7239L59.91 3.63707H59.8155V10.647H58.0457V0.465193Z" fill="#282828"/>
<path d="M71.7722 13.5106C71.527 13.5106 71.2999 13.4908 71.0911 13.451C70.8856 13.4145 70.7215 13.3714 70.5989 13.3217L71.0165 11.9197C71.2784 11.996 71.512 12.0324 71.7175 12.0291C71.923 12.0258 72.1037 11.9612 72.2594 11.8352C72.4185 11.7126 72.5527 11.5071 72.6621 11.2187L72.8162 10.8061L70.0471 3.01065H71.9562L73.7161 8.77769H73.7957L75.5606 3.01065H77.4746L74.4171 11.5717C74.2746 11.9761 74.0857 12.3224 73.8503 12.6108C73.615 12.9025 73.3267 13.1245 72.9853 13.277C72.6472 13.4328 72.2429 13.5106 71.7722 13.5106Z" fill="#282828"/>
<path d="M91.3702 5.5561C91.3702 6.65317 91.1647 7.5928 90.7537 8.37499C90.3461 9.15388 89.7893 9.75047 89.0833 10.1648C88.3806 10.5791 87.5835 10.7862 86.692 10.7862C85.8004 10.7862 85.0016 10.5791 84.2957 10.1648C83.593 9.74715 83.0362 9.14891 82.6252 8.37002C82.2175 7.58783 82.0137 6.64985 82.0137 5.5561C82.0137 4.45904 82.2175 3.52106 82.6252 2.74218C83.0362 1.95998 83.593 1.36174 84.2957 0.947437C85.0016 0.533138 85.8004 0.325989 86.692 0.325989C87.5835 0.325989 88.3806 0.533138 89.0833 0.947437C89.7893 1.36174 90.3461 1.95998 90.7537 2.74218C91.1647 3.52106 91.3702 4.45904 91.3702 5.5561ZM89.5158 5.5561C89.5158 4.78385 89.3948 4.13257 89.1529 3.60227C88.9143 3.06865 88.5828 2.66595 88.1586 2.39417C87.7343 2.11908 87.2455 1.98153 86.692 1.98153C86.1385 1.98153 85.6496 2.11908 85.2253 2.39417C84.8011 2.66595 84.468 3.06865 84.2261 3.60227C83.9874 4.13257 83.8681 4.78385 83.8681 5.5561C83.8681 6.32836 83.9874 6.98129 84.2261 7.51491C84.468 8.04521 84.8011 8.44791 85.2253 8.72301C85.6496 8.99479 86.1385 9.13068 86.692 9.13068C87.2455 9.13068 87.7343 8.99479 88.1586 8.72301C88.5828 8.44791 88.9143 8.04521 89.1529 7.51491C89.3948 6.98129 89.5158 6.32836 89.5158 5.5561Z" fill="#282828"/>
<path d="M93.0345 10.647V3.01065H94.7795V4.28337H94.859C94.9982 3.84256 95.2369 3.50284 95.575 3.2642C95.9163 3.02225 96.3058 2.90127 96.7433 2.90127C96.8427 2.90127 96.9537 2.90624 97.0764 2.91619C97.2023 2.92282 97.3067 2.93442 97.3896 2.95099V4.60653C97.3133 4.58001 97.1924 4.55681 97.0266 4.53693C96.8642 4.51373 96.7068 4.50212 96.5544 4.50212C96.2262 4.50212 95.9313 4.57338 95.6694 4.7159C95.4109 4.85511 95.207 5.049 95.0579 5.29758C94.9088 5.54616 94.8342 5.83285 94.8342 6.15767V10.647H93.0345Z" fill="#282828"/>
<path d="M101.105 10.7812C100.505 10.7812 99.9678 10.6271 99.4938 10.3189C99.0198 10.0106 98.6453 9.5632 98.3702 8.97656C98.0951 8.38991 97.9576 7.67731 97.9576 6.83877C97.9576 5.99029 98.0968 5.27438 98.3752 4.69105C98.6569 4.1044 99.0364 3.66193 99.5137 3.36363C99.991 3.06202 100.523 2.91122 101.11 2.91122C101.557 2.91122 101.925 2.98745 102.213 3.13991C102.502 3.28906 102.73 3.46969 102.899 3.68181C103.068 3.89062 103.199 4.08783 103.292 4.27343H103.367V0.465193H105.171V10.647H103.401V9.44389H103.292C103.199 9.62949 103.065 9.8267 102.889 10.0355C102.714 10.241 102.482 10.4167 102.193 10.5625C101.905 10.7083 101.542 10.7812 101.105 10.7812ZM101.607 9.30468C101.988 9.30468 102.313 9.20194 102.581 8.99644C102.85 8.78764 103.053 8.49763 103.193 8.12642C103.332 7.7552 103.401 7.32267 103.401 6.82883C103.401 6.33498 103.332 5.90577 103.193 5.54119C103.057 5.1766 102.855 4.89322 102.586 4.69105C102.321 4.48887 101.995 4.38778 101.607 4.38778C101.206 4.38778 100.871 4.49218 100.602 4.70099C100.334 4.9098 100.132 5.19815 99.9959 5.56605C99.86 5.93394 99.7921 6.35487 99.7921 6.82883C99.7921 7.3061 99.86 7.732 99.9959 8.10653C100.135 8.47774 100.339 8.77106 100.607 8.9865C100.879 9.19862 101.212 9.30468 101.607 9.30468Z" fill="#282828"/>
<path d="M110.47 10.7962C109.704 10.7962 109.043 10.6371 108.486 10.3189C107.933 9.99739 107.507 9.54332 107.208 8.95667C106.91 8.36671 106.761 7.67234 106.761 6.87357C106.761 6.08806 106.91 5.39867 107.208 4.80539C107.51 4.2088 107.931 3.74479 108.471 3.41335C109.011 3.07859 109.646 2.91122 110.375 2.91122C110.846 2.91122 111.29 2.98745 111.708 3.13991C112.129 3.28906 112.5 3.52106 112.821 3.83593C113.146 4.1508 113.401 4.55184 113.587 5.03906C113.773 5.52296 113.865 6.09966 113.865 6.76917V7.32102H107.606V6.10795H112.14C112.137 5.76325 112.062 5.45667 111.917 5.1882C111.771 4.91642 111.567 4.70265 111.305 4.54687C111.047 4.39109 110.745 4.3132 110.4 4.3132C110.032 4.3132 109.709 4.40269 109.431 4.58167C109.152 4.75733 108.935 4.98934 108.779 5.27769C108.627 5.56273 108.549 5.87594 108.546 6.21732V7.27627C108.546 7.7204 108.627 8.10156 108.789 8.41974C108.952 8.73461 109.179 8.97656 109.471 9.14559C109.762 9.31131 110.104 9.39417 110.495 9.39417C110.757 9.39417 110.994 9.35771 111.206 9.2848C111.418 9.20856 111.602 9.09753 111.757 8.9517C111.913 8.80587 112.031 8.62523 112.11 8.4098L113.791 8.59872C113.685 9.04284 113.483 9.43063 113.184 9.76207C112.889 10.0902 112.511 10.3454 112.051 10.5277C111.59 10.7067 111.063 10.7962 110.47 10.7962Z" fill="#282828"/>
<path d="M115.388 10.647V3.01065H117.133V4.28337H117.213C117.352 3.84256 117.59 3.50284 117.928 3.2642C118.27 3.02225 118.659 2.90127 119.097 2.90127C119.196 2.90127 119.307 2.90624 119.43 2.91619C119.556 2.92282 119.66 2.93442 119.743 2.95099V4.60653C119.667 4.58001 119.546 4.55681 119.38 4.53693C119.218 4.51373 119.06 4.50212 118.908 4.50212C118.58 4.50212 118.285 4.57338 118.023 4.7159C117.764 4.85511 117.561 5.049 117.411 5.29758C117.262 5.54616 117.188 5.83285 117.188 6.15767V10.647H115.388Z" fill="#282828"/>
<path d="M126.974 5.02911L125.334 5.20809C125.287 5.04237 125.206 4.8866 125.09 4.74076C124.977 4.59493 124.825 4.47727 124.633 4.38778C124.44 4.29829 124.205 4.25355 123.927 4.25355C123.552 4.25355 123.237 4.33475 122.982 4.49715C122.73 4.65956 122.606 4.87002 122.609 5.12855C122.606 5.35061 122.687 5.53124 122.853 5.67045C123.022 5.80965 123.3 5.924 123.688 6.01349L124.991 6.2919C125.713 6.44767 126.25 6.6946 126.601 7.03267C126.956 7.37073 127.135 7.8132 127.138 8.36008C127.135 8.84067 126.994 9.26491 126.716 9.63281C126.441 9.99739 126.058 10.2824 125.567 10.4879C125.077 10.6934 124.513 10.7962 123.877 10.7962C122.942 10.7962 122.19 10.6006 121.62 10.2095C121.05 9.8151 120.71 9.26657 120.601 8.56392L122.356 8.39488C122.435 8.73958 122.604 8.99976 122.863 9.17542C123.121 9.35108 123.458 9.43892 123.872 9.43892C124.3 9.43892 124.643 9.35108 124.901 9.17542C125.163 8.99976 125.294 8.78267 125.294 8.52414C125.294 8.30539 125.209 8.12476 125.04 7.98224C124.875 7.83972 124.616 7.73034 124.265 7.65411L122.962 7.38068C122.23 7.22821 121.688 6.97135 121.336 6.61008C120.985 6.2455 120.811 5.7848 120.814 5.22798C120.811 4.75733 120.939 4.34966 121.197 4.00497C121.459 3.65695 121.822 3.38849 122.286 3.19957C122.753 3.00733 123.292 2.91122 123.902 2.91122C124.797 2.91122 125.501 3.10179 126.015 3.48295C126.532 3.8641 126.852 4.37949 126.974 5.02911Z" fill="#282828"/>
</svg>
