<svg width="143" height="14" viewBox="0 0 143 14" fill="none" xmlns="http://www.w3.org/2000/svg">
<path d="M0.673645 0.325989H2.93075L5.95347 7.70383H6.07279L9.09552 0.325989H11.3526V10.5078H9.58274V3.51278H9.48828L6.67436 10.478H5.35191L2.53799 3.49786H2.44353V10.5078H0.673645V0.325989Z" fill="#282828"/>
<path d="M15.479 10.6619C14.9951 10.6619 14.5593 10.5758 14.1715 10.4034C13.787 10.2277 13.4821 9.96922 13.2567 9.62783C13.0347 9.28645 12.9236 8.86552 12.9236 8.36505C12.9236 7.93418 13.0032 7.57788 13.1623 7.29616C13.3214 7.01444 13.5385 6.78906 13.8136 6.62002C14.0887 6.45099 14.3986 6.32339 14.7432 6.23721C15.0913 6.14772 15.4509 6.08309 15.8221 6.04332C16.2695 5.99692 16.6325 5.95549 16.9109 5.91903C17.1893 5.87926 17.3914 5.8196 17.5174 5.74005C17.6467 5.65719 17.7113 5.52959 17.7113 5.35724V5.32741C17.7113 4.95288 17.6003 4.66287 17.3782 4.45738C17.1561 4.25189 16.8363 4.14914 16.4187 4.14914C15.9779 4.14914 15.6282 4.24526 15.3697 4.43749C15.1145 4.62973 14.9421 4.85676 14.8526 5.1186L13.1722 4.87997C13.3048 4.41595 13.5236 4.02817 13.8285 3.71661C14.1334 3.40175 14.5063 3.16642 14.9471 3.01065C15.3879 2.85156 15.8751 2.77201 16.4087 2.77201C16.7766 2.77201 17.1429 2.8151 17.5075 2.90127C17.872 2.98745 18.2051 3.12997 18.5067 3.32883C18.8084 3.52438 19.0503 3.79119 19.2326 4.12926C19.4182 4.46732 19.511 4.88991 19.511 5.39701V10.5078H17.7809V9.4588H17.7212C17.6119 9.67092 17.4577 9.86979 17.2589 10.0554C17.0633 10.2377 16.8164 10.3852 16.5181 10.4979C16.2231 10.6072 15.8768 10.6619 15.479 10.6619ZM15.9464 9.33948C16.3076 9.33948 16.6209 9.26822 16.886 9.12571C17.1512 8.97987 17.355 8.78764 17.4975 8.549C17.6433 8.31036 17.7163 8.05018 17.7163 7.76846V6.8686C17.6599 6.915 17.5638 6.95809 17.4279 6.99786C17.2953 7.03764 17.1462 7.07244 16.9805 7.10227C16.8147 7.1321 16.6507 7.15861 16.4883 7.18181C16.3259 7.20501 16.185 7.2249 16.0657 7.24147C15.7972 7.27793 15.5569 7.33759 15.3448 7.42045C15.1327 7.50331 14.9653 7.61931 14.8427 7.76846C14.72 7.91429 14.6587 8.10321 14.6587 8.33522C14.6587 8.66666 14.7797 8.9169 15.0217 9.08593C15.2636 9.25497 15.5718 9.33948 15.9464 9.33948Z" fill="#282828"/>
<path d="M23.1204 6.03338V10.5078H21.3207V2.87144H23.0408V4.16903H23.1303C23.306 3.74147 23.5861 3.40175 23.9705 3.14985C24.3583 2.89796 24.8372 2.77201 25.4073 2.77201C25.9343 2.77201 26.3933 2.8847 26.7844 3.11008C27.1789 3.33546 27.4838 3.66193 27.6992 4.08948C27.918 4.51704 28.0257 5.03574 28.0224 5.64559V10.5078H26.2227V5.924C26.2227 5.41358 26.0901 5.0142 25.8249 4.72585C25.5631 4.43749 25.2002 4.29332 24.7361 4.29332C24.4213 4.29332 24.1412 4.36292 23.8959 4.50213C23.654 4.63802 23.4634 4.83522 23.3242 5.09374C23.1883 5.35227 23.1204 5.66548 23.1204 6.03338Z" fill="#282828"/>
<path d="M32.0494 10.6619C31.5655 10.6619 31.1296 10.5758 30.7418 10.4034C30.3574 10.2277 30.0524 9.96922 29.8271 9.62783C29.605 9.28645 29.494 8.86552 29.494 8.36505C29.494 7.93418 29.5735 7.57788 29.7326 7.29616C29.8917 7.01444 30.1088 6.78906 30.3839 6.62002C30.659 6.45099 30.9689 6.32339 31.3136 6.23721C31.6616 6.14772 32.0212 6.08309 32.3924 6.04332C32.8398 5.99692 33.2028 5.95549 33.4812 5.91903C33.7596 5.87926 33.9618 5.8196 34.0877 5.74005C34.217 5.65719 34.2816 5.52959 34.2816 5.35724V5.32741C34.2816 4.95288 34.1706 4.66287 33.9485 4.45738C33.7264 4.25189 33.4066 4.14914 32.989 4.14914C32.5482 4.14914 32.1985 4.24526 31.94 4.43749C31.6848 4.62973 31.5124 4.85676 31.4229 5.1186L29.7425 4.87997C29.8751 4.41595 30.0939 4.02817 30.3988 3.71661C30.7037 3.40175 31.0766 3.16642 31.5174 3.01065C31.9582 2.85156 32.4454 2.77201 32.979 2.77201C33.3469 2.77201 33.7132 2.8151 34.0778 2.90127C34.4423 2.98745 34.7754 3.12997 35.0771 3.32883C35.3787 3.52438 35.6206 3.79119 35.8029 4.12926C35.9885 4.46732 36.0813 4.88991 36.0813 5.39701V10.5078H34.3512V9.4588H34.2915C34.1822 9.67092 34.028 9.86979 33.8292 10.0554C33.6336 10.2377 33.3867 10.3852 33.0884 10.4979C32.7934 10.6072 32.4471 10.6619 32.0494 10.6619ZM32.5167 9.33948C32.878 9.33948 33.1912 9.26822 33.4563 9.12571C33.7215 8.97987 33.9253 8.78764 34.0678 8.549C34.2137 8.31036 34.2866 8.05018 34.2866 7.76846V6.8686C34.2302 6.915 34.1341 6.95809 33.9982 6.99786C33.8656 7.03764 33.7165 7.07244 33.5508 7.10227C33.3851 7.1321 33.221 7.15861 33.0586 7.18181C32.8962 7.20501 32.7553 7.2249 32.636 7.24147C32.3675 7.27793 32.1272 7.33759 31.9151 7.42045C31.703 7.50331 31.5356 7.61931 31.413 7.76846C31.2904 7.91429 31.229 8.10321 31.229 8.33522C31.229 8.66666 31.35 8.9169 31.592 9.08593C31.8339 9.25497 32.1422 9.33948 32.5167 9.33948Z" fill="#282828"/>
<path d="M41.212 13.5305C40.5657 13.5305 40.0105 13.4427 39.5465 13.267C39.0825 13.0947 38.7096 12.8627 38.4279 12.571C38.1462 12.2793 37.9506 11.9562 37.8413 11.6016L39.462 11.2088C39.5349 11.3579 39.641 11.5054 39.7802 11.6513C39.9194 11.8004 40.1066 11.9231 40.342 12.0192C40.5806 12.1186 40.8806 12.1683 41.2418 12.1683C41.7522 12.1683 42.1748 12.044 42.5096 11.7954C42.8443 11.5502 43.0117 11.1458 43.0117 10.5824V9.13565H42.9222C42.8294 9.32125 42.6935 9.51183 42.5146 9.70738C42.3389 9.90293 42.1052 10.067 41.8136 10.1996C41.5252 10.3321 41.1623 10.3984 40.7248 10.3984C40.1381 10.3984 39.6062 10.2609 39.1289 9.98579C38.6549 9.70738 38.2771 9.29308 37.9954 8.74289C37.717 8.18939 37.5778 7.49668 37.5778 6.66477C37.5778 5.82623 37.717 5.1186 37.9954 4.5419C38.2771 3.96188 38.6566 3.52272 39.1339 3.22443C39.6111 2.92282 40.1431 2.77201 40.7298 2.77201C41.1772 2.77201 41.5451 2.84824 41.8334 3.0007C42.1251 3.14985 42.3571 3.33049 42.5295 3.54261C42.7018 3.75141 42.8327 3.94862 42.9222 4.13423H43.0217V2.87144H44.7965V10.6321C44.7965 11.285 44.6407 11.8253 44.3292 12.2528C44.0176 12.6804 43.5917 13.0002 43.0515 13.2124C42.5112 13.4245 41.8981 13.5305 41.212 13.5305ZM41.2269 8.9865C41.6081 8.9865 41.9329 8.8937 42.2013 8.70809C42.4698 8.52249 42.6736 8.25568 42.8129 7.90766C42.9521 7.55965 43.0217 7.14204 43.0217 6.65482C43.0217 6.17424 42.9521 5.75331 42.8129 5.39204C42.677 5.03077 42.4748 4.7507 42.2063 4.55184C41.9412 4.34966 41.6147 4.24857 41.2269 4.24857C40.8259 4.24857 40.4911 4.35298 40.2227 4.56178C39.9542 4.77059 39.752 5.05729 39.6161 5.42187C39.4802 5.78314 39.4123 6.19412 39.4123 6.65482C39.4123 7.12215 39.4802 7.53148 39.6161 7.88281C39.7553 8.23082 39.9592 8.5026 40.2276 8.69815C40.4994 8.89038 40.8325 8.9865 41.2269 8.9865Z" fill="#282828"/>
<path d="M50.0217 10.657C49.256 10.657 48.5948 10.4979 48.038 10.1797C47.4845 9.85819 47.0586 9.40411 46.7603 8.81747C46.462 8.2275 46.3129 7.53314 46.3129 6.73437C46.3129 5.94886 46.462 5.25946 46.7603 4.66619C47.0619 4.0696 47.4828 3.60558 48.0231 3.27414C48.5633 2.93939 49.198 2.77201 49.9272 2.77201C50.3978 2.77201 50.842 2.84824 51.2596 3.0007C51.6805 3.14985 52.0517 3.38186 52.3732 3.69673C52.698 4.01159 52.9532 4.41264 53.1388 4.89985C53.3245 5.38375 53.4173 5.96046 53.4173 6.62997V7.18181H47.158V5.96874H51.6921C51.6888 5.62405 51.6142 5.31747 51.4684 5.049C51.3226 4.77722 51.1187 4.56344 50.8569 4.40766C50.5984 4.25189 50.2967 4.174 49.9521 4.174C49.5842 4.174 49.261 4.26349 48.9826 4.44247C48.7042 4.61813 48.4871 4.85014 48.3313 5.13849C48.1789 5.42353 48.101 5.73674 48.0977 6.07812V7.13707C48.0977 7.5812 48.1789 7.96235 48.3413 8.28053C48.5037 8.5954 48.7307 8.83735 49.0224 9.00639C49.314 9.17211 49.6554 9.25497 50.0465 9.25497C50.3084 9.25497 50.5453 9.21851 50.7575 9.14559C50.9696 9.06936 51.1535 8.95833 51.3093 8.81249C51.4651 8.66666 51.5827 8.48603 51.6623 8.27059L53.3427 8.45951C53.2366 8.90364 53.0344 9.29142 52.7361 9.62286C52.4412 9.95099 52.0633 10.2062 51.6026 10.3885C51.1419 10.5675 50.6149 10.657 50.0217 10.657Z" fill="#282828"/>
<path d="M58.492 0.325989H60.7491L63.7718 7.70383H63.8912L66.9139 0.325989H69.171V10.5078H67.4011V3.51278H67.3066L64.4927 10.478H63.1703L60.3563 3.49786H60.2619V10.5078H58.492V0.325989Z" fill="#282828"/>
<path d="M72.2186 13.3714C71.9733 13.3714 71.7463 13.3516 71.5375 13.3118C71.332 13.2753 71.1679 13.2322 71.0453 13.1825L71.4629 11.7805C71.7247 11.8568 71.9584 11.8932 72.1639 11.8899C72.3694 11.8866 72.55 11.822 72.7058 11.696C72.8649 11.5734 72.9991 11.3679 73.1085 11.0795L73.2626 10.6669L70.4934 2.87144H72.4025L74.1625 8.63849H74.242L76.0069 2.87144H77.921L74.8634 11.4325C74.7209 11.8369 74.532 12.1832 74.2967 12.4716C74.0614 12.7633 73.773 12.9853 73.4316 13.1378C73.0936 13.2936 72.6892 13.3714 72.2186 13.3714Z" fill="#282828"/>
<path d="M82.7186 10.5078V0.325989H86.5367C87.3189 0.325989 87.9752 0.471822 88.5055 0.763489C89.0391 1.05516 89.4418 1.4562 89.7136 1.96661C89.9887 2.47372 90.1262 3.05042 90.1262 3.69673C90.1262 4.34966 89.9887 4.92968 89.7136 5.43678C89.4385 5.94389 89.0325 6.34327 88.4956 6.63494C87.9586 6.92329 87.2974 7.06747 86.5119 7.06747H83.9813V5.55113H86.2633C86.7207 5.55113 87.0952 5.47159 87.3869 5.31249C87.6786 5.1534 87.894 4.93465 88.0332 4.65624C88.1757 4.37784 88.247 4.058 88.247 3.69673C88.247 3.33546 88.1757 3.01728 88.0332 2.74218C87.894 2.46709 87.6769 2.25331 87.3819 2.10085C87.0902 1.94507 86.7141 1.86718 86.2534 1.86718H84.563V10.5078H82.7186Z" fill="#282828"/>
<path d="M91.6488 10.5078V2.87144H93.3938V4.14417H93.4734C93.6126 3.70336 93.8512 3.36363 94.1893 3.12499C94.5307 2.88304 94.9201 2.76207 95.3576 2.76207C95.457 2.76207 95.5681 2.76704 95.6907 2.77698C95.8166 2.78361 95.921 2.79521 96.0039 2.81178V4.46732C95.9277 4.44081 95.8067 4.41761 95.641 4.39772C95.4786 4.37452 95.3211 4.36292 95.1687 4.36292C94.8405 4.36292 94.5456 4.43418 94.2837 4.5767C94.0252 4.7159 93.8214 4.9098 93.6722 5.15838C93.5231 5.40695 93.4485 5.69365 93.4485 6.01846V10.5078H91.6488Z" fill="#282828"/>
<path d="M100.216 10.657C99.4703 10.657 98.824 10.4929 98.2772 10.1648C97.7303 9.83664 97.306 9.3776 97.0044 8.78764C96.7061 8.19768 96.557 7.50828 96.557 6.71946C96.557 5.93063 96.7061 5.23958 97.0044 4.6463C97.306 4.05303 97.7303 3.59232 98.2772 3.2642C98.824 2.93607 99.4703 2.77201 100.216 2.77201C100.962 2.77201 101.608 2.93607 102.155 3.2642C102.702 3.59232 103.124 4.05303 103.423 4.6463C103.724 5.23958 103.875 5.93063 103.875 6.71946C103.875 7.50828 103.724 8.19768 103.423 8.78764C103.124 9.3776 102.702 9.83664 102.155 10.1648C101.608 10.4929 100.962 10.657 100.216 10.657ZM100.226 9.21519C100.63 9.21519 100.968 9.10416 101.24 8.8821C101.512 8.65672 101.714 8.35511 101.847 7.97727C101.983 7.59943 102.051 7.1785 102.051 6.71448C102.051 6.24715 101.983 5.82457 101.847 5.44673C101.714 5.06557 101.512 4.76231 101.24 4.53693C100.968 4.31155 100.63 4.19886 100.226 4.19886C99.8117 4.19886 99.467 4.31155 99.1919 4.53693C98.9202 4.76231 98.7163 5.06557 98.5804 5.44673C98.4478 5.82457 98.3816 6.24715 98.3816 6.71448C98.3816 7.1785 98.4478 7.59943 98.5804 7.97727C98.7163 8.35511 98.9202 8.65672 99.1919 8.8821C99.467 9.10416 99.8117 9.21519 100.226 9.21519Z" fill="#282828"/>
<path d="M108.236 10.642C107.637 10.642 107.1 10.4879 106.626 10.1797C106.152 9.87144 105.777 9.424 105.502 8.83735C105.227 8.25071 105.089 7.53811 105.089 6.69957C105.089 5.85108 105.229 5.13517 105.507 4.55184C105.789 3.96519 106.168 3.52272 106.646 3.22443C107.123 2.92282 107.655 2.77201 108.241 2.77201C108.689 2.77201 109.057 2.84824 109.345 3.0007C109.634 3.14985 109.862 3.33049 110.031 3.54261C110.2 3.75141 110.331 3.94862 110.424 4.13423H110.499V0.325989H112.303V10.5078H110.533V9.30468H110.424C110.331 9.49029 110.197 9.68749 110.021 9.8963C109.846 10.1018 109.614 10.2775 109.325 10.4233C109.037 10.5691 108.674 10.642 108.236 10.642ZM108.739 9.16548C109.12 9.16548 109.445 9.06273 109.713 8.85724C109.982 8.64843 110.185 8.35842 110.325 7.98721C110.464 7.616 110.533 7.18347 110.533 6.68963C110.533 6.19578 110.464 5.76657 110.325 5.40198C110.189 5.0374 109.986 4.75402 109.718 4.55184C109.453 4.34966 109.126 4.24857 108.739 4.24857C108.338 4.24857 108.003 4.35298 107.734 4.56178C107.466 4.77059 107.264 5.05894 107.128 5.42684C106.992 5.79474 106.924 6.21567 106.924 6.68963C106.924 7.1669 106.992 7.5928 107.128 7.96732C107.267 8.33854 107.471 8.63186 107.739 8.8473C108.011 9.05942 108.344 9.16548 108.739 9.16548Z" fill="#282828"/>
<path d="M119.088 7.29616V2.87144H120.888V10.5078H119.143V9.15056H119.063C118.891 9.57812 118.608 9.92779 118.213 10.1996C117.822 10.4713 117.34 10.6072 116.767 10.6072C116.266 10.6072 115.824 10.4962 115.439 10.2741C115.058 10.0488 114.76 9.7223 114.544 9.29474C114.329 8.86387 114.221 8.34351 114.221 7.73366V2.87144H116.021V7.45525C116.021 7.93915 116.153 8.32362 116.418 8.60866C116.684 8.8937 117.032 9.03622 117.463 9.03622C117.728 9.03622 117.985 8.97159 118.233 8.84233C118.482 8.71306 118.686 8.52083 118.845 8.26562C119.007 8.0071 119.088 7.68394 119.088 7.29616Z" fill="#282828"/>
<path d="M126.07 10.657C125.307 10.657 124.653 10.4896 124.106 10.1548C123.562 9.82007 123.143 9.35771 122.848 8.76775C122.556 8.17447 122.41 7.49171 122.41 6.71946C122.41 5.94389 122.56 5.25946 122.858 4.66619C123.156 4.0696 123.577 3.60558 124.121 3.27414C124.668 2.93939 125.314 2.77201 126.06 2.77201C126.679 2.77201 127.228 2.88636 127.705 3.11505C128.186 3.34043 128.569 3.66027 128.854 4.07457C129.139 4.48555 129.301 4.96614 129.341 5.51633H127.621C127.551 5.14843 127.385 4.84185 127.124 4.59659C126.865 4.34801 126.519 4.22372 126.085 4.22372C125.717 4.22372 125.393 4.32315 125.115 4.52201C124.837 4.71756 124.62 4.99928 124.464 5.36718C124.311 5.73508 124.235 6.17589 124.235 6.68963C124.235 7.20999 124.311 7.65743 124.464 8.03196C124.616 8.40317 124.83 8.68986 125.105 8.89204C125.384 9.0909 125.71 9.19034 126.085 9.19034C126.35 9.19034 126.587 9.14062 126.795 9.04119C127.008 8.93844 127.185 8.79095 127.327 8.59872C127.47 8.40648 127.568 8.17282 127.621 7.89772H129.341C129.298 8.43797 129.139 8.9169 128.864 9.33451C128.589 9.74881 128.214 10.0736 127.74 10.3089C127.266 10.541 126.709 10.657 126.07 10.657Z" fill="#282828"/>
<path d="M134.632 2.87144V4.26349H130.242V2.87144H134.632ZM131.326 1.0419H133.126V8.21093C133.126 8.45288 133.162 8.63849 133.235 8.76775C133.311 8.8937 133.411 8.97987 133.533 9.02627C133.656 9.07268 133.792 9.09587 133.941 9.09587C134.054 9.09587 134.156 9.08759 134.249 9.07102C134.345 9.05445 134.418 9.03953 134.468 9.02627L134.771 10.4332C134.675 10.4664 134.537 10.5028 134.358 10.5426C134.183 10.5824 133.967 10.6056 133.712 10.6122C133.261 10.6255 132.855 10.5575 132.494 10.4084C132.133 10.2559 131.846 10.0206 131.634 9.70241C131.425 9.38423 131.323 8.9865 131.326 8.50923V1.0419Z" fill="#282828"/>
<path d="M142.063 4.88991L140.423 5.06889C140.376 4.90317 140.295 4.74739 140.179 4.60156C140.066 4.45572 139.914 4.33806 139.722 4.24857C139.529 4.15909 139.294 4.11434 139.016 4.11434C138.641 4.11434 138.326 4.19554 138.071 4.35795C137.819 4.52035 137.695 4.73082 137.698 4.98934C137.695 5.21141 137.776 5.39204 137.942 5.53124C138.111 5.67045 138.389 5.7848 138.777 5.87428L140.08 6.15269C140.802 6.30847 141.339 6.55539 141.69 6.89346C142.045 7.23153 142.224 7.674 142.227 8.22088C142.224 8.70146 142.083 9.1257 141.805 9.4936C141.53 9.85819 141.147 10.1432 140.656 10.3487C140.166 10.5542 139.602 10.657 138.966 10.657C138.031 10.657 137.279 10.4614 136.709 10.0703C136.139 9.67589 135.799 9.12736 135.69 8.42471L137.445 8.25568C137.524 8.60037 137.693 8.86055 137.952 9.03622C138.21 9.21188 138.547 9.29971 138.961 9.29971C139.388 9.29971 139.732 9.21188 139.99 9.03622C140.252 8.86055 140.383 8.64346 140.383 8.38494C140.383 8.16619 140.298 7.98555 140.129 7.84303C139.964 7.70052 139.705 7.59114 139.354 7.51491L138.051 7.24147C137.319 7.08901 136.777 6.83214 136.425 6.47088C136.074 6.10629 135.9 5.64559 135.903 5.08877C135.9 4.61813 136.028 4.21046 136.286 3.86576C136.548 3.51775 136.911 3.24928 137.375 3.06036C137.842 2.86813 138.381 2.77201 138.991 2.77201C139.886 2.77201 140.59 2.96259 141.104 3.34374C141.621 3.7249 141.941 4.24029 142.063 4.88991Z" fill="#282828"/>
</svg>
